<svg xmlns="http://www.w3.org/2000/svg" viewBox="0 0 512 512" width="512" height="512">
  <defs>
    <linearGradient id="bg-grad" x1="0%" y1="0%" x2="100%" y2="100%">
      <stop offset="0%" stop-color="#0f172a" />
      <stop offset="100%" stop-color="#020617" />
    </linearGradient>

    <linearGradient id="front-grad" x1="0%" y1="0%" x2="100%" y2="100%">
      <stop offset="0%" stop-color="#1e293b" />
      <stop offset="100%" stop-color="#0f172a" />
    </linearGradient>

    <filter id="glow" x="-20%" y="-20%" width="140%" height="140%">
      <feGaussianBlur stdDeviation="12" result="blur" />
      <feComposite in="SourceGraphic" in2="blur" operator="over" />
    </filter>
  </defs>

  <rect x="32" y="32" width="448" height="448" rx="100" fill="url(#bg-grad)" />

  <rect x="80" y="100" width="280" height="200" rx="20" fill="#334155" />

  <rect x="120" y="140" width="280" height="200" rx="20" fill="#475569" />

  <rect x="160" y="180" width="280" height="200" rx="20" fill="url(#front-grad)" stroke="#0ea5e9" stroke-width="8" filter="url(#glow)"/>

  <path d="M 160 200 A 20 20 0 0 1 180 180 L 420 180 A 20 20 0 0 1 440 200 L 440 220 L 160 220 Z" fill="#0c4a6e" />

  <circle cx="185" cy="200" r="6" fill="#ef4444" />
  <circle cx="210" cy="200" r="6" fill="#f59e0b" />
  <circle cx="235" cy="200" r="6" fill="#10b981" />

  <polyline points="200,260 225,280 200,300" fill="none" stroke="#38bdf8" stroke-width="14" stroke-linecap="round" stroke-linejoin="round" />
  <line x1="245" y1="300" x2="285" y2="300" stroke="#38bdf8" stroke-width="14" stroke-linecap="round" />
</svg>
